# xmcd
#
# Track frame offsets: 
#        150
#        16479
#        33234
#        49902
#        59105
#        76241
#        94152
#        103948
#        128493
#        146210
#        166821
#        185578
#        192037
#        211298
#
# Disc length: 3085 seconds
#
# Revision: 0
# Processed by: cddbd v1.5.2PL0 Copyright (c) Steve Scherf et al.
# Submitted via: ExactAudioCopy v0.95a5
#
DISCID=c40c0b0e
DTITLE=Jack Johnson - Sleep Through The Static
DYEAR=2008
DGENRE=Country
TTITLE0=All At Once
TTITLE1=Sleep Through The Static             
TTITLE2=Hope
TTITLE3=Angel
TTITLE4=Enemy
TTITLE5=If I Had Eyes 
TTITLE6=Same Girl
TTITLE7=What You Thought You Need
TTITLE8=Adrift
TTITLE9=Go On
TTITLE10=They Do, They Dont
TTITLE11=While We Wait
TTITLE12=Monsoon
TTITLE13=Losing Keys
EXTD=
EXTT0=
EXTT1=
EXTT2=
EXTT3=
EXTT4=
EXTT5=
EXTT6=
EXTT7=
EXTT8=
EXTT9=
EXTT10=
EXTT11=
EXTT12=
EXTT13=
PLAYORDER=
